# Blender 4.2.1 LTS
# www.blender.org
mtllib person.mtl
o TorsoUpper
v 1.136164 1.118286 -1.331078
v 1.171350 0.848502 -0.398706
v 0.000001 2.824689 -1.428837
v 0.000001 1.071618 -1.442413
v 0.000001 2.736502 -0.344760
v 0.000000 0.856488 -0.304124
v 1.220979 1.993625 -1.245482
v 0.000001 1.853952 -0.274615
v 1.220979 1.988101 -0.510466
v 0.000001 1.829738 -1.436716
v 0.407113 3.147717 -0.521249
v 0.000001 3.173528 -0.389671
v 0.408140 3.151590 -1.036498
v 0.000002 3.172609 -1.245124
v 0.000001 3.449736 -0.378358
v 0.000002 3.463230 -1.266856
v 0.292881 3.475076 -1.038107
v 0.289545 3.489944 -0.532771
v 1.272527 2.911946 -1.278777
v 1.237630 2.850469 -0.475311
v -1.136162 1.118286 -1.331079
v -1.171349 0.848503 -0.398707
v -1.220977 1.993625 -1.245483
v -1.220977 1.988101 -0.510466
v -0.407110 3.147717 -0.521249
v -0.408137 3.151590 -1.036498
v -0.292877 3.475077 -1.038107
v -0.289542 3.489945 -0.532772
v -1.272525 2.911947 -1.278778
v -1.237628 2.850470 -0.475312
vn 0.1349 0.0350 0.9902
vn 0.1373 -0.0169 -0.9904
vn 0.9972 -0.0670 -0.0321
vn 0.3073 0.9500 0.0554
vn 0.1229 0.0490 -0.9912
vn 0.3775 0.0721 0.9232
vn 0.9439 0.3301 0.0005
vn 0.5288 0.0671 -0.8461
vn 0.1371 0.2729 0.9522
vn 0.1456 0.0184 0.9892
vn 0.1237 0.6953 -0.7080
vn -1.0000 -0.0000 -0.0000
vn -0.1349 0.0350 0.9902
vn -0.1373 -0.0169 -0.9904
vn -0.9972 -0.0670 -0.0321
vn -0.3073 0.9500 0.0554
vn -0.1229 0.0490 -0.9912
vn -0.3775 0.0721 0.9232
vn -0.9439 0.3301 0.0005
vn -0.5288 0.0671 -0.8461
vn -0.1371 0.2729 0.9522
vn -0.1456 0.0184 0.9892
vn -0.1237 0.6953 -0.7080
vn -0.9990 -0.0383 0.0210
vn 0.9990 -0.0383 0.0210
vn -0.0180 -0.9734 -0.2283
vn 0.0180 -0.9734 -0.2283
vt 0.375000 0.750000
vt 0.419960 0.750000
vt 0.448378 0.969122
vt 0.378638 0.996047
vt 0.419960 0.500000
vt 0.419960 0.250000
vt 0.603008 0.254485
vt 0.620694 0.451931
vt 0.375000 0.500000
vt 0.625000 0.804497
vt 0.625000 0.500000
vt 0.625000 0.750000
vt 0.375000 0.250000
vt 0.625000 1.000000
vt 0.625000 0.750000
vt 0.625000 1.000000
vt 0.625000 0.500000
vt 0.625000 0.250000
vt 0.625000 0.250000
s 0
usemtl Material
f 2/1/1 9/2/1 8/3/1 6/4/1
f 7/5/2 10/6/2 3/7/2 19/8/2
f 1/9/3 7/5/3 9/2/3 2/1/3
f 20/10/4 19/8/4 13/11/4 11/12/4
f 7/5/5 1/9/5 4/13/5 10/6/5
f 12/14/6 11/12/6 18/15/6 15/16/6
f 11/12/7 13/11/7 17/17/7 18/15/7
f 13/11/8 14/18/8 16/19/8 17/17/8
f 20/10/9 11/12/9 12/14/9 5/14/9
f 9/2/10 20/10/10 5/14/10 8/3/10
f 13/11/11 19/8/11 3/7/11 14/18/11
f 8/3/12 5/14/12 6/4/12
f 22/1/13 6/4/13 8/3/13 24/2/13
f 23/5/14 29/8/14 3/7/14 10/6/14
f 21/9/15 22/1/15 24/2/15 23/5/15
f 30/10/16 25/12/16 26/11/16 29/8/16
f 23/5/17 10/6/17 4/13/17 21/9/17
f 12/14/18 15/16/18 28/15/18 25/12/18
f 25/12/19 28/15/19 27/17/19 26/11/19
f 26/11/20 27/17/20 16/19/20 14/18/20
f 30/10/21 5/14/21 12/14/21 25/12/21
f 24/2/22 8/3/22 5/14/22 30/10/22
f 26/11/23 14/18/23 3/7/23 29/8/23
f 24/2/24 30/10/24 29/8/24 23/5/24
f 9/2/25 7/5/25 19/8/25 20/10/25
f 6/4/26 22/1/26 21/9/26 4/13/26
f 6/4/27 4/13/27 1/9/27 2/1/27
o Head
v 0.566634 3.588302 -0.494094
v 0.000001 3.456547 -0.382086
v 0.566712 3.590664 -1.010783
v 0.000002 3.636314 -1.280113
v 0.653190 4.252231 -0.519756
v 0.653461 4.271493 -1.413948
v 0.000002 4.317552 -1.747877
v 0.724248 5.239069 -0.512338
v 0.000002 5.311722 -0.367305
v 0.725565 5.259814 -1.406521
v 0.000002 5.339633 -1.740196
v 0.512462 3.819578 0.004654
v 0.000001 3.662651 0.125814
v 0.000001 4.727644 0.134656
v 0.615391 4.690253 0.011197
v 0.000001 3.449737 -0.378358
v 0.000002 3.463230 -1.266856
v 0.292881 3.475077 -1.038107
v 0.289545 3.489945 -0.532771
v -0.566631 3.588303 -0.494095
v -0.566709 3.590665 -1.010784
v -0.653187 4.252232 -0.519756
v -0.653457 4.271493 -1.413949
v -0.724245 5.239070 -0.512339
v -0.725561 5.259815 -1.406521
v -0.512460 3.819579 0.004654
v -0.615388 4.690254 0.011197
v -0.292877 3.475077 -1.038107
v -0.289542 3.489945 -0.532772
vn 0.4506 -0.3882 -0.8039
vn 0.3607 -0.9326 0.0126
vn 0.2905 -0.8858 0.3620
vn 0.4351 -0.0088 -0.9004
vn 0.3465 -0.5209 -0.7801
vn 0.9917 -0.1284 -0.0017
vn 0.1018 0.9946 0.0214
vn 0.9974 -0.0723 -0.0007
vn 0.2006 0.6468 0.7358
vn 0.3159 -0.8639 0.3923
vn 0.2139 -0.0191 0.9767
vn 0.9834 -0.1006 0.1511
vn -0.4506 -0.3882 -0.8039
vn -0.3607 -0.9326 0.0126
vn -0.2905 -0.8858 0.3620
vn -0.4351 -0.0088 -0.9004
vn -0.3465 -0.5209 -0.7801
vn -0.9917 -0.1284 -0.0017
vn -0.1018 0.9946 0.0214
vn -0.9974 -0.0723 -0.0007
vn -0.2006 0.6468 0.7358
vn -0.3159 -0.8639 0.3923
vn -0.2139 -0.0191 0.9767
vn -0.9834 -0.1006 0.1511
vt 0.358056 0.751908
vt 0.186728 0.999940
vt 0.182703 0.872752
vt 0.273520 0.645992
vt 0.333173 0.359151
vt 0.243558 0.578697
vt 0.155085 0.000060
vt 0.155727 0.020350
vt 0.192546 0.630763
vt 0.175240 0.636921
vt 0.174735 0.620968
vt 0.179151 0.619649
vt 0.197517 0.608732
vt 0.174451 0.611983
vt 0.180529 0.613662
vt 0.174184 0.603548
vt 0.182289 0.605594
vt 0.192275 0.583376
vt 0.173278 0.574924
vt 0.000060 0.763237
vt 0.077730 0.652188
vt 0.000060 0.369693
vt 0.103377 0.583133
vt 0.157579 0.631870
vt 0.170245 0.619931
vt 0.151225 0.610197
vt 0.168491 0.614043
vt 0.166225 0.606102
vt 0.154853 0.584560
s 0
usemtl Material
f 48/20/28 47/21/28 34/22/28 33/23/28
f 49/24/29 48/20/29 33/23/29 31/25/29
f 46/26/30 49/24/30 31/25/30 32/27/30
f 36/28/31 37/29/31 41/30/31 40/31/31
f 33/23/32 34/22/32 37/29/32 36/28/32
f 31/25/33 33/23/33 36/28/33 35/32/33
f 40/31/34 41/30/34 39/33/34 38/34/34
f 35/32/35 36/28/35 40/31/35 38/34/35
f 38/34/36 39/33/36 44/35/36 45/36/36
f 32/27/37 31/25/37 42/37/37 43/38/37
f 42/37/38 45/36/38 44/35/38 43/38/38
f 35/32/39 38/34/39 45/36/39 42/37/39 31/25/39
f 58/39/40 51/40/40 34/22/40 47/21/40
f 59/41/41 50/42/41 51/40/41 58/39/41
f 46/26/42 32/27/42 50/42/42 59/41/42
f 53/43/43 55/44/43 41/30/43 37/29/43
f 51/40/44 53/43/44 37/29/44 34/22/44
f 50/42/45 52/45/45 53/43/45 51/40/45
f 55/44/46 54/46/46 39/33/46 41/30/46
f 52/45/47 54/46/47 55/44/47 53/43/47
f 54/46/48 57/47/48 44/35/48 39/33/48
f 32/27/49 43/38/49 56/48/49 50/42/49
f 56/48/50 43/38/50 44/35/50 57/47/50
f 52/45/51 50/42/51 56/48/51 57/47/51 54/46/51
o ArmL1
v 1.220979 1.993624 -1.245482
v 1.220979 1.988101 -0.510466
v 3.569213 2.023025 -0.699105
v 3.629760 2.651124 -0.701145
v 3.527107 2.023685 -1.304915
v 3.586580 2.650786 -1.306735
v 1.272527 2.911946 -1.278777
v 1.237630 2.850469 -0.475311
vn 0.0862 -0.0266 0.9959
vn -0.0200 -0.0213 -0.9996
vn 0.0996 0.9941 0.0425
vn 0.0137 -0.9999 -0.0050
vn -0.9990 0.0383 -0.0210
vn 0.9930 -0.0952 -0.0699
vt 0.625000 0.804497
vt 0.419960 0.750000
vt 0.421075 0.704705
vt 0.437116 0.686230
vt 0.420836 0.551777
vt 0.419960 0.500000
vt 0.620694 0.451931
vt 0.437023 0.528459
s 0
usemtl Material
f 67/49/52 61/50/52 62/51/52 63/52/52
f 64/53/53 60/54/53 66/55/53 65/56/53
f 63/52/54 65/56/54 66/55/54 67/49/54
f 60/54/55 64/53/55 62/51/55 61/50/55
f 61/50/56 67/49/56 66/55/56 60/54/56
f 63/52/57 62/51/57 64/53/57 65/56/57
o LegL1
v 1.222993 -0.927934 -1.254376
v 1.285591 -0.934404 -0.393548
v 0.000000 -0.926744 -1.412857
v -0.000000 -0.935369 -0.265144
v 1.612348 -3.791347 -1.299647
v 1.612348 -3.798412 -0.359611
v 0.784086 -3.820724 -1.335205
v 0.784086 -3.801001 -0.337904
vn 0.0708 0.0070 0.9975
vn -0.9649 -0.2627 0.0014
vn 0.9917 0.1241 -0.0335
vn 0.0940 0.0136 -0.9955
vn -0.0000 1.0000 0.0075
vn 0.0192 -0.9998 0.0065
vt 0.378638 0.996047
vt 0.378638 0.996047
vt 0.375000 0.750000
vt 0.375000 0.750000
vt 0.000000 0.000000
vt 0.375000 0.500000
vt 0.375000 0.500000
vt 0.375000 0.250000
s 0
usemtl Material
f 71/57/58 75/58/58 73/59/58 69/60/58
f 70/61/59 74/61/59 75/61/59 71/61/59
f 69/60/60 73/59/60 72/62/60 68/63/60
f 68/63/61 72/62/61 74/64/61 70/64/61
f 68/63/62 70/61/62 71/57/62 69/60/62
f 74/64/63 72/62/63 73/59/63 75/58/63
o TorsoLower
v 1.136163 1.118285 -1.331079
v 1.171350 0.848502 -0.398708
v 0.000001 1.071618 -1.442413
v 0.000000 0.856488 -0.304124
v 1.222992 -0.927934 -1.254378
v 1.285592 -0.934404 -0.393550
v 0.000000 -0.926744 -1.412858
v -0.000000 -0.935369 -0.265144
v -1.136161 1.118286 -1.331080
v -1.171349 0.848503 -0.398709
v -1.222992 -0.927934 -1.254379
v -1.285592 -0.934403 -0.393551
vn 0.0904 0.0152 0.9958
vn 0.9976 0.0514 -0.0465
vn 0.1140 -0.0236 -0.9932
vn -0.0904 0.0152 0.9958
vn -0.9976 0.0514 -0.0465
vn -0.1140 -0.0236 -0.9932
vn 0.0180 0.9734 0.2283
vn -0.0180 0.9734 0.2283
vn -0.0000 -1.0000 -0.0075
vt 0.375000 0.750000
vt 0.378638 0.996047
vt 0.378638 0.996047
vt 0.375000 0.750000
vt 0.375000 0.500000
vt 0.375000 0.500000
vt 0.375000 0.250000
s 0
usemtl Material
f 77/65/64 79/66/64 83/67/64 81/68/64
f 76/69/65 77/65/65 81/68/65 80/70/65
f 78/71/66 76/69/66 80/70/66 82/71/66
f 85/65/67 87/68/67 83/67/67 79/66/67
f 84/69/68 86/70/68 87/68/68 85/65/68
f 78/71/69 82/71/69 86/70/69 84/69/69
f 79/66/70 78/71/70 84/69/70 85/65/70
f 79/66/71 77/65/71 76/69/71 78/71/71
f 86/70/72 82/71/72 83/67/72 87/68/72
f 80/70/72 81/68/72 83/67/72 82/71/72
o ArmL3
v 4.996249 2.040138 -1.366961
v 5.043897 2.044264 -0.886851
v 5.025635 2.533321 -1.373245
v 5.073281 2.537446 -0.893134
v 6.169179 1.882654 -1.438696
v 6.111599 1.912822 -0.988559
v 6.144852 2.523104 -1.434658
v 6.094783 2.511279 -0.987683
vn -0.1251 -0.9915 0.0352
vn 0.9924 0.0325 0.1184
vn -0.0581 -0.0017 -0.9983
vn 0.0176 0.9998 0.0084
vn 0.0938 0.0039 0.9956
vn -0.9933 0.0604 0.0981
vt 0.419960 0.804581
vt 0.419962 0.569837
vt 0.419960 0.435700
vt 0.419960 0.606047
vt 0.419960 0.408239
vt 0.419960 0.547162
vt 0.419961 0.522612
vt 0.419961 0.667423
s 0
usemtl Material
f 89/72/73 88/73/73 92/74/73 93/75/73
f 93/75/74 92/74/74 94/76/74 95/77/74
f 88/73/75 90/78/75 94/76/75 92/74/75
f 90/78/76 91/79/76 95/77/76 94/76/76
f 91/79/77 89/72/77 93/75/77 95/77/77
f 89/72/78 91/79/78 90/78/78 88/73/78
o ArmL2
v 4.996249 2.040138 -1.366961
v 5.043897 2.044264 -0.886851
v 5.025635 2.533321 -1.373245
v 5.073281 2.537446 -0.893134
v 3.569214 2.023025 -0.699105
v 3.629761 2.651124 -0.701145
v 3.527107 2.023685 -1.304915
v 3.586580 2.650786 -1.306735
vn 0.1289 -0.0030 0.9916
vn 0.0130 -0.9999 0.0021
vn -0.0443 -0.0037 -0.9990
vn 0.0790 0.9968 -0.0107
vn -0.9930 0.0952 0.0699
vn 0.9933 -0.0604 -0.0981
vt 0.419960 0.804581
vt 0.419961 0.667423
vt 0.437116 0.686230
vt 0.421075 0.704705
vt 0.419962 0.569837
vt 0.420836 0.551777
vt 0.419961 0.522612
vt 0.437023 0.528459
s 0
usemtl Material
f 97/80/79 99/81/79 101/82/79 100/83/79
f 96/84/80 97/80/80 100/83/80 102/85/80
f 98/86/81 96/84/81 102/85/81 103/87/81
f 101/82/82 99/81/82 98/86/82 103/87/82
f 101/82/83 103/87/83 102/85/83 100/83/83
f 97/80/84 96/84/84 98/86/84 99/81/84
o LegL3
v 1.089726 -6.601730 -1.353072
v 1.089725 -6.608709 -0.424380
v 1.904917 -6.603821 -1.329440
v 1.904917 -6.610445 -0.448041
v 1.103330 -7.348713 -1.359115
v 1.902403 -7.350643 -1.357008
v 1.001320 -6.964846 0.942255
v 1.876193 -6.961905 0.790469
v 0.998317 -7.358621 0.938689
v 1.907645 -7.351717 0.815001
vn -0.9991 0.0199 -0.0379
vn 0.0027 -1.0000 -0.0024
vn 0.9999 0.0134 0.0067
vn 0.0160 0.0226 -0.9996
vn 0.1523 0.0320 0.9878
vn 0.0266 0.9644 0.2631
vn 0.0023 1.0000 0.0075
vt 0.000000 0.000000
vt 0.375000 0.500000
vt 0.269439 0.827182
vt 0.133212 0.802338
vt 0.125342 0.505461
vt 0.375000 0.750000
vt 0.378639 0.996047
vt 0.375000 0.250000
vt 0.375000 0.252539
vt 0.671837 0.788325
vt 0.365643 0.983952
vt 0.378638 0.996047
s 0
usemtl Material
f 108/88/85 112/88/85 110/88/85 105/88/85 104/88/85
f 109/89/86 113/90/86 112/91/86 108/92/86
f 106/89/87 107/93/87 111/94/87 113/90/87 109/89/87
f 104/95/88 106/89/88 109/89/88 108/96/88
f 111/94/89 110/97/89 112/98/89 113/90/89
f 107/93/90 105/99/90 110/97/90 111/94/90
f 104/95/91 105/99/91 107/93/91 106/89/91
o LegL2
v 1.612348 -3.791347 -1.299647
v 1.612348 -3.798412 -0.359611
v 0.784086 -3.820723 -1.335205
v 0.784086 -3.801000 -0.337904
v 1.089726 -6.601730 -1.353072
v 1.089726 -6.608709 -0.424380
v 1.904917 -6.603821 -1.329440
v 1.904917 -6.610445 -0.448041
vn 0.0276 -0.0282 0.9992
vn -0.9941 -0.1087 0.0007
vn 0.9946 0.1035 0.0008
vn 0.0358 0.0123 -0.9993
vn -0.0192 0.9998 -0.0065
vn -0.0023 -1.0000 -0.0075
vt 0.378638 0.996047
vt 0.375000 0.750000
vt 0.375000 0.750000
vt 0.000000 0.000000
vt 0.375000 0.500000
vt 0.375000 0.500000
vt 0.375000 0.250000
vt 0.375000 0.250000
s 0
usemtl Material
f 119/100/92 121/101/92 115/102/92 117/100/92
f 118/103/93 119/103/93 117/103/93 116/103/93
f 115/102/94 121/101/94 120/104/94 114/105/94
f 114/105/95 120/104/95 118/106/95 116/107/95
f 116/107/96 117/100/96 115/102/96 114/105/96
f 118/106/97 120/104/97 121/101/97 119/100/97
o ArmL1.001
v -1.220979 1.993623 -1.245483
v -1.220979 1.988099 -0.510466
v -3.569214 2.023022 -0.699108
v -3.629761 2.651121 -0.701147
v -3.527107 2.023682 -1.304918
v -3.586581 2.650783 -1.306738
v -1.272528 2.911945 -1.278777
v -1.237631 2.850468 -0.475312
vn -0.0862 -0.0266 0.9959
vn 0.0200 -0.0213 -0.9996
vn -0.0996 0.9941 0.0425
vn -0.0137 -0.9999 -0.0050
vn 0.9990 0.0383 -0.0210
vn -0.9930 -0.0952 -0.0699
vt 0.625000 0.804497
vt 0.437116 0.686230
vt 0.421075 0.704705
vt 0.419960 0.750000
vt 0.420836 0.551777
vt 0.437023 0.528459
vt 0.620694 0.451931
vt 0.419960 0.500000
s 0
usemtl Material
f 129/108/98 125/109/98 124/110/98 123/111/98
f 126/112/99 127/113/99 128/114/99 122/115/99
f 125/109/100 129/108/100 128/114/100 127/113/100
f 122/115/101 123/111/101 124/110/101 126/112/101
f 123/111/102 122/115/102 128/114/102 129/108/102
f 125/109/103 127/113/103 126/112/103 124/110/103
o ArmL2.001
v -4.996248 2.040134 -1.366964
v -5.043896 2.044260 -0.886854
v -5.025635 2.533317 -1.373248
v -5.073281 2.537443 -0.893138
v -3.569214 2.023022 -0.699108
v -3.629761 2.651122 -0.701147
v -3.527107 2.023682 -1.304918
v -3.586580 2.650783 -1.306738
vn -0.1289 -0.0030 0.9916
vn -0.0130 -0.9999 0.0021
vn 0.0443 -0.0037 -0.9990
vn -0.0790 0.9968 -0.0107
vn 0.9930 0.0952 0.0699
vn -0.9933 -0.0604 -0.0981
vt 0.419960 0.804581
vt 0.421075 0.704705
vt 0.437116 0.686230
vt 0.419961 0.667423
vt 0.419962 0.569837
vt 0.420836 0.551777
vt 0.419961 0.522612
vt 0.437023 0.528459
s 0
usemtl Material
f 131/116/104 134/117/104 135/118/104 133/119/104
f 130/120/105 136/121/105 134/117/105 131/116/105
f 132/122/106 137/123/106 136/121/106 130/120/106
f 135/118/107 137/123/107 132/122/107 133/119/107
f 135/118/108 134/117/108 136/121/108 137/123/108
f 131/116/109 133/119/109 132/122/109 130/120/109
o ArmL3.001
v -4.996248 2.040135 -1.366964
v -5.043896 2.044260 -0.886854
v -5.025635 2.533317 -1.373248
v -5.073281 2.537443 -0.893138
v -6.169178 1.882650 -1.438700
v -6.111598 1.912817 -0.988563
v -6.144852 2.523099 -1.434662
v -6.094783 2.511274 -0.987687
vn 0.1251 -0.9915 0.0352
vn -0.9924 0.0325 0.1184
vn 0.0581 -0.0017 -0.9983
vn -0.0176 0.9998 0.0083
vn -0.0938 0.0039 0.9956
vn 0.9933 0.0604 0.0981
vt 0.419960 0.804581
vt 0.419960 0.606047
vt 0.419960 0.435700
vt 0.419962 0.569837
vt 0.419960 0.547162
vt 0.419960 0.408239
vt 0.419961 0.522612
vt 0.419961 0.667423
s 0
usemtl Material
f 139/124/110 143/125/110 142/126/110 138/127/110
f 143/125/111 145/128/111 144/129/111 142/126/111
f 138/127/112 142/126/112 144/129/112 140/130/112
f 140/130/113 144/129/113 145/128/113 141/131/113
f 141/131/114 145/128/114 143/125/114 139/124/114
f 139/124/115 138/127/115 140/130/115 141/131/115
o LegL1.001
v 0.000000 -0.926744 -1.412857
v -0.000000 -0.935369 -0.265144
v -1.222991 -0.927935 -1.254377
v -1.285590 -0.934405 -0.393549
v -1.612344 -3.791348 -1.299648
v -1.612344 -3.798413 -0.359612
v -0.784082 -3.820724 -1.335205
v -0.784082 -3.801001 -0.337904
vn -0.0708 0.0070 0.9975
vn 0.9649 -0.2627 0.0014
vn -0.9917 0.1241 -0.0335
vn -0.0940 0.0136 -0.9955
vn -0.0000 1.0000 0.0075
vn -0.0192 -0.9998 0.0065
vt 0.378638 0.996047
vt 0.375000 0.750000
vt 0.375000 0.750000
vt 0.378638 0.996047
vt 0.000000 0.000000
vt 0.375000 0.500000
vt 0.375000 0.500000
vt 0.375000 0.250000
s 0
usemtl Material
f 147/132/116 149/133/116 151/134/116 153/135/116
f 146/136/117 147/136/117 153/136/117 152/136/117
f 149/133/118 148/137/118 150/138/118 151/134/118
f 148/137/119 146/139/119 152/139/119 150/138/119
f 146/139/120 148/137/120 149/133/120 147/132/120
f 152/139/121 153/135/121 151/134/121 150/138/121
o LegL2.001
v -1.612344 -3.791348 -1.299648
v -1.612344 -3.798413 -0.359612
v -0.784082 -3.820724 -1.335205
v -0.784082 -3.801001 -0.337904
v -1.089719 -6.601730 -1.353073
v -1.089720 -6.608709 -0.424380
v -1.904911 -6.603823 -1.329441
v -1.904911 -6.610447 -0.448041
vn -0.0276 -0.0282 0.9992
vn 0.9941 -0.1087 0.0007
vn -0.9946 0.1035 0.0008
vn -0.0358 0.0123 -0.9993
vn 0.0192 0.9998 -0.0065
vn 0.0023 -1.0000 -0.0075
vt 0.378638 0.996047
vt 0.375000 0.750000
vt 0.375000 0.750000
vt 0.000000 0.000000
vt 0.375000 0.500000
vt 0.375000 0.500000
vt 0.375000 0.250000
vt 0.375000 0.250000
s 0
usemtl Material
f 159/140/122 157/140/122 155/141/122 161/142/122
f 158/143/123 156/143/123 157/143/123 159/143/123
f 155/141/124 154/144/124 160/145/124 161/142/124
f 154/144/125 156/146/125 158/147/125 160/145/125
f 156/146/126 154/144/126 155/141/126 157/140/126
f 158/147/127 159/140/127 161/142/127 160/145/127
o LegL3.001
v -1.089719 -6.601730 -1.353073
v -1.089720 -6.608709 -0.424380
v -1.904911 -6.603823 -1.329441
v -1.904911 -6.610447 -0.448041
v -1.103323 -7.348713 -1.359116
v -1.902396 -7.350645 -1.357010
v -1.001314 -6.964846 0.942255
v -1.876188 -6.961908 0.790468
v -0.998311 -7.358620 0.938689
v -1.907640 -7.351719 0.815000
vn 0.9991 0.0199 -0.0379
vn -0.0027 -1.0000 -0.0024
vn -0.9999 0.0134 0.0067
vn -0.0160 0.0226 -0.9996
vn -0.1523 0.0320 0.9878
vn -0.0266 0.9644 0.2631
vn -0.0023 1.0000 0.0075
vt 0.000000 0.000000
vt 0.375000 0.500000
vt 0.125342 0.505461
vt 0.133212 0.802338
vt 0.269439 0.827182
vt 0.378639 0.996047
vt 0.375000 0.750000
vt 0.375000 0.250000
vt 0.375000 0.252539
vt 0.365643 0.983952
vt 0.671837 0.788325
vt 0.378638 0.996047
s 0
usemtl Material
f 166/148/128 162/148/128 163/148/128 168/148/128 170/148/128
f 167/149/129 166/150/129 170/151/129 171/152/129
f 164/149/130 167/149/130 171/152/130 169/153/130 165/154/130
f 162/155/131 166/156/131 167/149/131 164/149/131
f 169/153/132 171/152/132 170/157/132 168/158/132
f 165/154/133 169/153/133 168/158/133 163/159/133
f 162/155/134 164/149/134 165/154/134 163/159/134
